<svg xmlns="http://www.w3.org/2000/svg" xmlns:xlink="http://www.w3.org/1999/xlink" width="810" zoomAndPan="magnify" viewBox="0 0 607.5 607.499986" height="810" preserveAspectRatio="xMidYMid meet" version="1.0"><defs><clipPath id="1368a953fe"><path d="M 0 0 L 607 0 L 607 607 L 0 607 Z M 0 0 " clip-rule="nonzero"/></clipPath><clipPath id="0eea2524ac"><path d="M 0 424.410156 L 607 424.410156 L 607 607 L 0 607 Z M 0 424.410156 " clip-rule="nonzero"/></clipPath><clipPath id="e9c570573d"><path d="M 303.285156 424.410156 C -0.386719 424.410156 -246.558594 575.71875 -246.558594 762.371094 C -246.558594 949.015625 -0.386719 1100.328125 303.285156 1100.328125 C 606.953125 1100.328125 853.125 949.015625 853.125 762.371094 C 853.125 575.71875 606.953125 424.410156 303.285156 424.410156 Z M 303.285156 424.410156 " clip-rule="nonzero"/></clipPath><clipPath id="b54b44b1be"><path d="M 63 58.230469 L 570.511719 58.230469 L 570.511719 571.230469 L 63 571.230469 Z M 63 58.230469 " clip-rule="nonzero"/></clipPath><clipPath id="fd47a028ef"><path d="M 265.699219 11.253906 L 339 11.253906 L 339 94 L 265.699219 94 Z M 265.699219 11.253906 " clip-rule="nonzero"/></clipPath></defs><path fill="#ffffff" d="M 0 0 L 607 0 L 607 607 L 0 607 Z M 0 0 " fill-opacity="1" fill-rule="nonzero"/><path fill="#ffffff" d="M 0 0 L 607 0 L 607 607 L 0 607 Z M 0 0 " fill-opacity="1" fill-rule="nonzero"/><g clip-path="url(#1368a953fe)"><rect x="-60.75" width="729" fill="#ffffff" y="-60.749999" height="728.999983" fill-opacity="1"/><rect x="-60.75" width="729" fill="#ffffff" y="-60.749999" height="728.999983" fill-opacity="1"/></g><g clip-path="url(#0eea2524ac)"><g clip-path="url(#e9c570573d)"><path fill="#fdfbf9" d="M -246.558594 424.410156 L 853.125 424.410156 L 853.125 1100.328125 L -246.558594 1100.328125 Z M -246.558594 424.410156 " fill-opacity="1" fill-rule="nonzero"/></g></g><g clip-path="url(#b54b44b1be)"><path fill="#dde7eb" d="M 79.128906 205.277344 C 94.03125 156.738281 120.296875 108.730469 165.144531 80.4375 C 209.988281 52.144531 276.328125 49.574219 315.09375 84.835938 C 345.796875 112.773438 353.457031 156.855469 382.089844 186.648438 C 407.214844 212.78125 444.785156 224.390625 479.515625 237.917969 C 514.238281 251.445312 550.34375 270.523438 564.117188 303.183594 C 570.207031 317.605469 571.285156 333.496094 570.109375 348.953125 C 565.789062 406.03125 531.242188 458.898438 483.917969 495.316406 C 436.59375 531.734375 377.46875 552.882812 317.265625 563.933594 C 247.628906 576.714844 170.570312 575.355469 111.683594 538.390625 C 96.429688 528.816406 82.519531 516.757812 73.960938 501.582031 C 53.511719 465.363281 67.304688 421.625 74.453125 381.238281 C 83.332031 331.054688 57.3125 276.34375 79.128906 205.277344 " fill-opacity="1" fill-rule="nonzero"/></g><path fill="#c1d7de" d="M 530.277344 356.476562 C 527.949219 370.808594 521.652344 384.273438 515.238281 397.472656 C 514.507812 398.980469 513.769531 400.484375 513.027344 401.984375 C 508.128906 411.949219 502.988281 421.949219 497.4375 431.730469 C 479.53125 463.285156 457.363281 492.566406 425.222656 511.101562 C 418.925781 514.734375 412.378906 517.867188 405.632812 520.570312 C 376.488281 532.242188 343.660156 535.808594 311.675781 536.207031 C 276.738281 536.644531 241.285156 533.554688 208.53125 522.183594 C 200.242188 519.300781 192.117188 515.851562 184.328125 511.84375 C 161.375 500.039062 141.324219 483.417969 128.226562 462.375 L 86.667969 399.6875 C 66.777344 386.199219 48.394531 368.976562 41.171875 347.046875 C 36.445312 332.691406 36.855469 317.148438 40.457031 302.507812 C 47.746094 272.945312 67.441406 247.3125 89.664062 225.175781 C 111.894531 203.03125 137.042969 183.527344 158.632812 160.84375 C 185.167969 132.957031 210.027344 98.117188 249.328125 91.277344 C 270.082031 87.667969 291.933594 93.027344 309.8125 103.519531 C 327.679688 114.007812 341.859375 129.304688 353.082031 145.984375 C 365.488281 164.410156 374.777344 184.957031 390.777344 200.792969 C 411.363281 221.171875 440.628906 231.4375 465.859375 246.605469 C 505.652344 270.53125 537.382812 312.824219 530.277344 356.476562 " fill-opacity="1" fill-rule="nonzero"/><path fill="#b05f15" d="M 263.558594 179.265625 C 262.394531 185.246094 258.566406 190.351562 255.214844 195.484375 C 247.691406 207.003906 241.613281 220.226562 229.878906 227.734375 C 225.125 230.777344 219.707031 232.675781 214.589844 235.089844 C 204.105469 240.039062 194.753906 247.238281 187.402344 256.027344 C 184.183594 252.695312 182.964844 254.066406 181.738281 255.429688 C 175.707031 247.484375 169.164062 239.898438 162.15625 232.75 C 180.082031 223.203125 199.082031 212.609375 208.078125 194.777344 C 210.144531 190.6875 211.632812 186.277344 214.375 182.585938 C 217.324219 178.609375 221.511719 175.730469 225.804688 173.097656 C 226.582031 172.621094 227.363281 172.148438 228.140625 171.683594 C 230.039062 170.546875 231.9375 169.40625 233.839844 168.265625 C 235.699219 167.148438 237.5625 166.035156 239.429688 164.914062 C 241.65625 163.585938 243.957031 162.21875 246.542969 161.832031 C 249.132812 161.449219 252.097656 162.304688 253.390625 164.511719 L 253.511719 164.363281 C 253.90625 163.925781 254.523438 163.800781 255.164062 163.839844 C 255.554688 163.863281 255.964844 163.949219 256.324219 164.074219 C 262.242188 166.089844 264.730469 173.296875 263.558594 179.265625 " fill-opacity="1" fill-rule="nonzero"/><path fill="#944c09" d="M 229.667969 187.070312 C 226.148438 190.230469 226.382812 195.605469 226.875 200.234375 C 227.617188 207.117188 228.359375 214.011719 229.839844 220.78125 C 233.597656 220.058594 236.496094 216.941406 237.851562 213.464844 C 239.207031 209.988281 239.25 206.171875 239.09375 202.457031 C 238.960938 199.285156 240.488281 198.722656 239.945312 195.589844 C 239.574219 193.464844 237.203125 188.59375 235.507812 187.203125 C 233.808594 185.816406 230.789062 186.058594 229.667969 187.070312 " fill-opacity="1" fill-rule="nonzero"/><path fill="#944c09" d="M 246.441406 189.46875 C 246.1875 189.160156 246.214844 188.71875 246.105469 188.355469 C 245.960938 187.707031 245.832031 187.058594 245.714844 186.40625 C 245.320312 184.269531 245.089844 182.117188 244.695312 179.980469 C 244.5 178.890625 244.253906 177.8125 243.921875 176.746094 C 243.621094 175.675781 242.6875 173.398438 242.570312 173.171875 C 242.242188 172.453125 241.855469 171.746094 241.40625 171.089844 L 241.371094 171.050781 L 241.308594 170.984375 C 240.71875 170.425781 241.054688 170.644531 240.285156 170.234375 C 239.820312 170.027344 239.019531 169.785156 237.707031 169.855469 C 236.648438 169.929688 236.632812 169.980469 235.25 170.226562 C 232.019531 170.898438 228.898438 171.972656 225.804688 173.097656 C 226.582031 172.621094 227.363281 172.148438 228.140625 171.683594 C 230.039062 170.546875 231.9375 169.40625 233.839844 168.265625 C 234.6875 168.082031 235.542969 167.921875 236.410156 167.820312 C 238.476562 167.527344 240.84375 167.742188 242.378906 169.246094 C 243.671875 170.609375 244.292969 172.421875 244.953125 174.132812 C 246.839844 179.113281 247.023438 184.078125 247.988281 188.714844 C 248.246094 189.621094 247 190.210938 246.441406 189.46875 " fill-opacity="1" fill-rule="nonzero"/><path fill="#944c09" d="M 255.390625 180.921875 C 255.394531 181.824219 254.085938 182.074219 253.753906 181.242188 C 253.632812 181.03125 253.695312 180.777344 253.6875 180.542969 C 253.6875 180.214844 253.691406 179.894531 253.699219 179.578125 C 253.734375 178.363281 253.800781 177.148438 253.855469 175.929688 C 254.007812 172.949219 254.21875 169.957031 253.867188 166.980469 C 253.734375 165.925781 253.671875 165.214844 253.511719 164.363281 C 253.90625 163.925781 254.523438 163.800781 255.164062 163.839844 C 255.246094 164.382812 255.320312 164.921875 255.390625 165.464844 C 256.164062 170.597656 255.4375 175.773438 255.390625 180.921875 " fill-opacity="1" fill-rule="nonzero"/><path fill="#2e2c2c" d="M 193.351562 425.847656 C 178.726562 430.910156 161.59375 422.191406 154.445312 408.804688 C 147.289062 395.421875 148.699219 378.9375 154.589844 364.984375 C 159.128906 354.25 166.207031 344.304688 167.988281 332.828125 C 170.023438 319.734375 165.023438 305.441406 171.101562 293.585938 C 176.527344 283.007812 189.136719 277.816406 196.355469 268.300781 C 201.328125 261.746094 203.898438 253.003906 211.09375 248.820312 C 213.425781 247.464844 216.132812 246.683594 218.210938 244.980469 C 221.746094 242.066406 222.667969 237.230469 223.574219 232.816406 C 229.203125 205.542969 245.613281 177.792969 272.921875 169.386719 C 301.226562 160.671875 333.847656 177.074219 347.195312 202.828125 C 349.902344 208.046875 351.957031 213.597656 355.214844 218.515625 C 359.359375 224.789062 365.40625 229.9375 368.257812 236.855469 C 371.609375 244.988281 370.050781 254.386719 373.210938 262.585938 C 376.910156 272.210938 386.382812 278.542969 391.992188 287.253906 C 397.550781 295.890625 399.011719 306.34375 400.34375 316.441406 C 402.304688 331.226562 404.253906 346.015625 406.210938 360.804688 C 406.808594 365.34375 407.410156 370 406.378906 374.464844 C 405.257812 379.320312 402.328125 383.554688 399.449219 387.667969 C 393.828125 395.699219 388.105469 403.835938 380.453125 410.085938 C 367.410156 420.738281 350.15625 424.84375 333.5625 428.636719 C 311.972656 433.574219 290.382812 438.511719 268.796875 443.445312 C 268.796875 443.445312 257.433594 442.101562 254.96875 442.027344 C 245.667969 440.980469 236.441406 439.257812 227.402344 436.890625 L 193.351562 425.847656 " fill-opacity="1" fill-rule="nonzero"/><path fill="#000000" d="M 308.308594 280.65625 C 313.921875 276.027344 318.550781 271.269531 321.601562 264.757812 C 323.226562 261.292969 322.160156 256.695312 324.246094 252.925781 C 323.253906 256.371094 325.246094 261.746094 325.085938 265.320312 C 324.917969 268.894531 325.65625 272.625 327.851562 275.5 C 329.664062 277.875 332.355469 279.546875 333.972656 282.046875 C 336.539062 285.996094 335.660156 291.722656 332.007812 294.769531 C 331.816406 294.933594 331.621094 295.089844 331.375 295.144531 C 330.960938 295.230469 330.554688 295.011719 330.1875 294.816406 C 324.324219 291.71875 317.25 292.203125 310.625 291.410156 C 310.09375 291.347656 309.527344 291.257812 309.152344 290.890625 C 308.726562 290.46875 308.683594 289.816406 308.683594 289.222656 C 308.683594 286.167969 309.105469 282.035156 308.308594 280.65625 " fill-opacity="1" fill-rule="nonzero"/><path fill="#0c0c0c" d="M 260.9375 293.507812 C 256.492188 293.296875 243.421875 292.738281 239.238281 291.285156 C 257.871094 286.121094 260.050781 255.472656 263.910156 254.4375 C 267.175781 262.992188 266.101562 287.285156 260.9375 293.507812 " fill-opacity="1" fill-rule="nonzero"/><path fill="#f9ab3f" d="M 507.050781 425.621094 C 506.617188 426.066406 506.171875 426.496094 505.707031 426.898438 C 505.3125 427.25 504.898438 427.574219 504.480469 427.890625 C 503.597656 428.558594 502.660156 429.152344 501.675781 429.667969 C 500.230469 430.421875 498.820312 431.105469 497.4375 431.730469 L 497.25 431.8125 C 495.710938 432.503906 494.21875 433.109375 492.757812 433.640625 C 488.660156 435.128906 484.835938 436.042969 481.203125 436.519531 C 480.679688 436.585938 480.15625 436.644531 479.640625 436.695312 C 474.296875 437.21875 469.359375 436.796875 464.59375 435.875 C 462.886719 435.550781 461.207031 435.15625 459.535156 434.730469 C 455.714844 433.742188 451.949219 432.527344 448.09375 431.339844 C 447.546875 431.167969 446.996094 431 446.441406 430.832031 C 445.210938 430.464844 443.972656 430.09375 442.71875 429.742188 C 434.910156 427.546875 426.8125 423.816406 418.996094 420.347656 C 418.464844 420.113281 417.941406 419.878906 417.417969 419.648438 C 411.683594 417.125 406.121094 414.804688 400.964844 413.417969 C 397.5 412.480469 402.972656 487.160156 405.632812 520.570312 C 376.488281 532.242188 343.660156 535.808594 311.675781 536.207031 C 276.738281 536.644531 241.285156 533.554688 208.53125 522.183594 C 200.242188 519.300781 192.117188 515.851562 184.328125 511.84375 C 183.992188 469.066406 185.945312 402.046875 185.847656 393.898438 C 185.84375 393.414062 185.835938 392.929688 185.832031 392.449219 C 185.824219 391.472656 185.8125 390.503906 185.804688 389.527344 C 185.796875 388.855469 185.269531 388.289062 184.578125 388.222656 C 177.460938 387.5 170.390625 386.4375 163.390625 385.089844 C 162.886719 384.992188 162.386719 384.898438 161.886719 384.796875 C 153.824219 383.203125 145.84375 381.238281 137.9375 378.972656 C 137.445312 378.835938 136.957031 378.6875 136.464844 378.550781 C 128.039062 376.097656 119.699219 373.3125 111.445312 370.296875 C 110.941406 370.105469 110.433594 369.921875 109.925781 369.730469 C 103.402344 367.316406 96.933594 364.753906 90.523438 362.09375 C 89.597656 361.710938 88.675781 361.328125 87.757812 360.9375 C 87.628906 360.886719 87.5 360.832031 87.367188 360.78125 C 85.207031 359.863281 83.039062 358.9375 80.894531 357.964844 C 80.386719 357.734375 79.882812 357.507812 79.382812 357.273438 C 72.191406 353.925781 65.292969 350.03125 59.589844 344.664062 C 59.453125 344.527344 59.3125 344.394531 59.175781 344.257812 C 55.324219 340.535156 52.710938 336.054688 51.324219 331.292969 C 51.179688 330.789062 51.046875 330.285156 50.929688 329.773438 C 49.351562 322.988281 50.226562 315.753906 53.546875 309.421875 C 53.847656 308.867188 54.160156 308.304688 54.492188 307.761719 C 55.699219 305.789062 57.152344 303.925781 58.859375 302.207031 C 62.019531 299.019531 65.253906 295.902344 68.554688 292.847656 C 68.96875 292.464844 69.375 292.085938 69.789062 291.707031 C 77.980469 284.203125 86.5625 277.101562 95.453125 270.367188 C 96.148438 269.84375 96.84375 269.324219 97.539062 268.800781 C 97.699219 268.679688 97.855469 268.558594 98.015625 268.445312 C 98.453125 268.117188 98.890625 267.796875 99.332031 267.464844 C 106.871094 261.910156 114.621094 256.613281 122.542969 251.558594 C 122.988281 251.277344 123.429688 250.988281 123.878906 250.703125 C 133.3125 244.734375 142.984375 239.097656 152.820312 233.769531 C 153.304688 233.507812 153.796875 233.246094 154.28125 232.984375 C 159.292969 230.292969 164.335938 227.6875 169.425781 225.148438 C 170.039062 224.839844 170.792969 225.027344 171.183594 225.585938 L 183.75 243.535156 L 185.511719 246.046875 L 190.609375 253.324219 L 191.542969 254.664062 L 203.589844 271.871094 C 204.058594 272.542969 204.550781 273.269531 204.53125 274.078125 C 204.507812 275.007812 203.828125 275.789062 203.179688 276.472656 C 200.296875 279.527344 197.308594 282.496094 194.226562 285.359375 C 193.621094 285.921875 193.015625 286.476562 192.40625 287.023438 C 190.871094 288.410156 189.324219 289.765625 187.753906 291.097656 C 187.230469 291.539062 186.707031 291.976562 186.179688 292.417969 C 183.859375 294.335938 181.492188 296.203125 179.082031 298.015625 C 177.84375 298.949219 178.921875 300.835938 180.390625 300.316406 C 182.308594 299.644531 184.238281 298.972656 186.164062 298.308594 C 186.671875 298.136719 187.183594 297.964844 187.695312 297.792969 C 191.4375 296.511719 195.195312 295.269531 198.972656 294.054688 C 204.722656 292.203125 210.753906 290.425781 216.859375 289.484375 C 217.355469 289.414062 217.847656 289.347656 218.34375 289.273438 C 224.417969 288.484375 230.5625 288.582031 236.585938 290.316406 C 237.109375 290.464844 237.632812 290.628906 238.164062 290.800781 C 238.292969 290.851562 238.425781 290.894531 238.558594 290.941406 L 238.808594 291.054688 C 248.015625 296.457031 257.566406 301.933594 267.445312 306.285156 C 267.875 306.476562 268.3125 306.667969 268.742188 306.847656 C 275.585938 309.789062 282.585938 312.164062 289.734375 313.578125 C 290.257812 313.683594 290.78125 313.78125 291.304688 313.871094 C 297.027344 314.898438 302.851562 315.28125 308.765625 314.835938 C 310.46875 314.710938 312.167969 314.507812 313.851562 314.253906 C 314.402344 314.171875 314.953125 314.082031 315.5 313.984375 C 328.132812 311.789062 340.144531 306.496094 352.464844 302.734375 C 366.199219 298.539062 381.769531 296.40625 394.808594 302.183594 C 395.40625 302.445312 396 302.722656 396.582031 303.023438 L 396.902344 303.191406 L 396.988281 303.238281 C 400.945312 305.636719 404.90625 307.984375 408.855469 310.316406 C 409.519531 310.703125 410.183594 311.09375 410.84375 311.480469 C 417.753906 315.546875 424.632812 319.5625 431.402344 323.625 C 431.996094 323.984375 432.59375 324.339844 433.1875 324.699219 C 439.445312 328.476562 445.597656 332.3125 451.589844 336.285156 C 452.207031 336.691406 452.816406 337.097656 453.429688 337.507812 C 454.667969 338.339844 455.886719 339.171875 457.109375 340.019531 C 457.785156 340.484375 458.457031 340.953125 459.121094 341.417969 C 466.332031 346.492188 473.261719 351.828125 479.785156 357.605469 C 480.25 358.015625 480.707031 358.429688 481.167969 358.847656 C 483.832031 361.246094 486.425781 363.726562 488.9375 366.296875 C 489.582031 366.945312 490.214844 367.609375 490.84375 368.269531 C 497.164062 374.9375 502.96875 382.191406 508.121094 390.21875 C 508.433594 390.714844 508.746094 391.210938 509.0625 391.710938 L 509.25 392.015625 C 510.203125 393.542969 511.859375 398.015625 513.027344 401.984375 C 513.570312 403.804688 514 405.515625 514.214844 406.792969 C 515.363281 413.601562 511.917969 420.59375 507.050781 425.621094 " fill-opacity="1" fill-rule="nonzero"/><path fill="#b05f15" d="M 341.808594 293.464844 C 342.820312 293.679688 343.195312 294.894531 342.457031 295.609375 C 334.859375 302.984375 327.179688 311.039062 317.003906 314.269531 C 304.585938 318.21875 290.40625 314.894531 277.847656 311.375 C 264.601562 307.667969 248.484375 302.40625 238.546875 292.910156 C 237.753906 292.15625 238.230469 290.84375 239.34375 290.734375 C 243.671875 290.324219 249.34375 289.914062 252.917969 289.496094 C 255.175781 289.234375 257.5 288.953125 259.476562 287.855469 C 264.5625 285.019531 265.960938 273.367188 264.9375 262.785156 C 264.792969 261.285156 264.597656 259.796875 264.355469 258.363281 L 264.355469 258.359375 C 258.121094 256.871094 252.5625 249.875 252.527344 242.710938 L 252.589844 240.808594 L 252.605469 240.65625 C 253.046875 237.9375 252.929688 237.117188 254.78125 236.195312 L 255.761719 235.746094 C 258.832031 234.246094 263.277344 236.03125 267.042969 236.832031 C 275.644531 238.671875 284.386719 230.113281 291.632812 225.253906 C 305.824219 215.738281 305.160156 213.027344 311 207.398438 C 311.550781 206.871094 312.445312 206.914062 312.933594 207.488281 L 317.507812 212.863281 C 318.980469 214.582031 328.585938 227.644531 324.570312 253.023438 C 323.03125 262.742188 319.308594 276.175781 309.992188 280.027344 L 309.972656 280.03125 C 309.417969 281.835938 310.148438 283.765625 311.457031 285.199219 C 311.816406 285.59375 312.21875 285.949219 312.652344 286.25 C 314.644531 287.660156 317.132812 288.203125 319.550781 288.71875 C 326.96875 290.296875 334.390625 291.878906 341.808594 293.464844 " fill-opacity="1" fill-rule="nonzero"/><path fill="#b05f15" d="M 391.027344 365.917969 C 379.703125 364.160156 369.714844 357.816406 360.730469 350.882812 C 357.277344 348.21875 353.914062 345.4375 350.761719 342.433594 C 346.863281 338.710938 342.582031 335.375 339.082031 331.261719 C 329.988281 320.570312 321.050781 325.949219 317.214844 319.394531 C 315.6875 316.789062 319.742188 309.851562 323.167969 307.660156 C 322.890625 305.894531 323.730469 304.09375 325.015625 302.816406 C 326.296875 301.539062 327.972656 300.714844 330.070312 299.875 C 329.996094 297.972656 331.148438 296.183594 332.667969 294.988281 C 334.191406 293.789062 336.050781 293.09375 337.894531 292.441406 C 341.824219 291.046875 345.8125 289.777344 350.496094 288.386719 C 348.507812 285.972656 346.523438 283.5625 344.535156 281.152344 C 344.082031 280.597656 343.621094 280.03125 343.011719 279.648438 C 342.324219 279.207031 341.511719 279.015625 340.71875 278.816406 C 336.117188 277.625 331.71875 275.671875 327.777344 273.070312 C 327.109375 272.625 326.410156 272.121094 326.132812 271.375 C 325.699219 270.246094 326.4375 268.945312 327.488281 268.304688 C 328.546875 267.667969 329.839844 267.542969 331.082031 267.460938 C 340.375 266.875 350.328125 268.371094 357.390625 274.265625 C 360.796875 277.121094 363.324219 280.820312 365.667969 284.550781 C 368.886719 289.671875 371.851562 294.941406 374.75 300.242188 C 380.847656 311.394531 386.667969 322.691406 392.210938 334.117188 C 392.769531 335.273438 393.332031 336.449219 393.578125 337.699219 C 393.84375 339.039062 393.738281 340.417969 393.621094 341.777344 C 392.992188 349.621094 392.351562 357.457031 391.027344 365.917969 " fill-opacity="1" fill-rule="nonzero"/><path fill="#944c09" d="M 311.457031 285.199219 C 302.109375 286.0625 292.40625 282.78125 285.6875 276.398438 C 284.761719 275.507812 283.84375 274.492188 284.453125 273.328125 C 291.699219 278.558594 301.023438 280.972656 309.992188 280.027344 L 309.972656 280.03125 C 309.417969 281.835938 310.148438 283.765625 311.457031 285.199219 " fill-opacity="1" fill-rule="nonzero"/><path fill="#944c09" d="M 266.351562 261.457031 C 265.894531 261.917969 265.429688 262.363281 264.9375 262.785156 C 264.792969 261.285156 264.597656 259.796875 264.355469 258.363281 C 264.578125 258.328125 264.800781 258.304688 265.015625 258.300781 C 266.007812 258.261719 267.1875 258.785156 267.261719 259.746094 C 267.3125 260.40625 266.828125 260.988281 266.351562 261.457031 " fill-opacity="1" fill-rule="nonzero"/><path fill="#1c171d" d="M 309.855469 246.796875 C 309.179688 246.117188 308.207031 245.804688 307.453125 245.214844 C 307.015625 244.898438 306.007812 243.890625 305.613281 243.175781 C 305.410156 242.8125 305.421875 242.785156 305.234375 242.144531 C 305.167969 241.941406 305.175781 241.699219 305.027344 241.53125 C 304.625 240.988281 303.710938 241.425781 303.902344 242.074219 C 304.042969 242.707031 304.207031 243.339844 304.523438 243.914062 C 304.9375 244.679688 305.511719 245.351562 306.136719 245.957031 C 306.824219 246.59375 307.640625 247.058594 308.410156 247.589844 L 308.699219 247.855469 L 308.75 247.9375 C 308.894531 248.347656 308.855469 248.238281 308.828125 248.890625 C 308.679688 249.75 308.46875 250.59375 308.335938 251.453125 L 308.339844 251.417969 C 308.230469 251.753906 308.453125 252.132812 308.804688 252.226562 C 309.644531 252.375 309.707031 251.445312 309.777344 251.425781 C 310.292969 250.082031 310.949219 248.007812 309.855469 246.796875 " fill-opacity="1" fill-rule="nonzero"/><path fill="#1c171d" d="M 294.839844 229.941406 C 294.515625 229.640625 293.960938 229.707031 293.542969 229.609375 C 292.03125 229.375 290.4375 229.554688 289.042969 230.179688 C 288.308594 230.488281 287.625 230.898438 287.003906 231.390625 C 286.664062 231.683594 286.25 231.984375 286.042969 232.378906 C 285.695312 233.109375 286.710938 233.765625 287.289062 233.195312 C 287.980469 232.503906 288.128906 232.425781 289.113281 231.863281 C 290.285156 231.265625 291.078125 231.101562 292.308594 231.050781 C 292.851562 231.035156 293.394531 231.058594 293.941406 231.101562 L 294.242188 231.132812 L 294.308594 231.136719 L 294.328125 231.136719 L 294.3125 231.136719 C 294.441406 231.140625 294.582031 231.109375 294.691406 231.046875 C 295.101562 230.824219 295.171875 230.253906 294.839844 229.941406 " fill-opacity="1" fill-rule="nonzero"/><path fill="#1c171d" d="M 319.867188 226.15625 C 318.6875 225.609375 317.355469 225.324219 316.054688 225.453125 C 315.296875 225.523438 314.59375 225.835938 313.953125 226.214844 C 313.550781 226.460938 313.171875 226.75 312.796875 227.039062 L 312.59375 227.207031 L 312.550781 227.238281 L 312.539062 227.25 L 312.550781 227.246094 L 312.378906 227.519531 C 312.257812 227.886719 312.578125 228.285156 312.96875 228.277344 C 313.144531 228.285156 313.296875 228.199219 313.433594 228.109375 C 313.660156 227.984375 313.886719 227.859375 314.121094 227.742188 C 314.640625 227.488281 314.929688 227.375 315.039062 227.332031 L 315.144531 227.289062 C 316.003906 226.992188 316.042969 226.972656 316.691406 226.953125 C 317.632812 226.976562 317.625 226.996094 318.332031 227.121094 C 318.574219 227.171875 318.824219 227.230469 319.058594 227.3125 C 319.234375 227.371094 319.410156 227.46875 319.601562 227.421875 C 320.257812 227.367188 320.441406 226.457031 319.867188 226.15625 " fill-opacity="1" fill-rule="nonzero"/><path fill="#944c09" d="M 335.152344 292.039062 C 334.003906 292.707031 332.898438 293.429688 331.886719 294.269531 C 330.730469 295.222656 329.988281 296.554688 329.492188 297.933594 C 329.359375 298.308594 329.238281 298.699219 329.136719 299.082031 L 329.085938 299.265625 C 325.484375 300.632812 322.960938 303.042969 322.1875 306.847656 C 322.164062 306.964844 322.125 307.238281 322.113281 307.386719 C 322.03125 308.164062 321.632812 308.695312 321.257812 308.972656 C 320.195312 309.773438 319.484375 310.957031 318.878906 312.105469 C 318.574219 312.671875 318.363281 313.28125 317.984375 313.804688 L 317.820312 314 L 318.792969 313.269531 C 319.042969 312.835938 322.210938 310.691406 322.867188 310.347656 C 323.859375 309.835938 325.0625 309.601562 326.59375 309.535156 C 327.003906 309.515625 327.433594 309.507812 327.894531 309.507812 C 333.148438 309.519531 339.191406 310.359375 343.011719 310.894531 L 343.121094 310.910156 C 343.242188 310.9375 343.367188 310.957031 343.480469 310.925781 C 343.597656 310.917969 343.707031 310.890625 343.804688 310.824219 C 344.210938 310.605469 344.367188 310.050781 344.121094 309.667969 C 343.9375 309.359375 343.597656 309.25 343.261719 309.230469 C 342.917969 309.183594 342.582031 309.128906 342.246094 309.066406 C 340.699219 308.804688 339.144531 308.5625 337.582031 308.339844 C 335.027344 307.949219 332.445312 307.6875 329.859375 307.5625 C 329.699219 307.550781 329.53125 307.542969 329.371094 307.539062 C 327.628906 307.457031 325.875 307.414062 324.160156 307.757812 L 323.957031 307.8125 C 324.066406 307.488281 324.078125 307.121094 324.175781 306.804688 C 324.3125 306.289062 324.488281 305.796875 324.695312 305.3125 C 324.917969 304.835938 325.167969 304.378906 325.484375 303.957031 C 326.871094 302.144531 329.359375 300.773438 332.664062 300.21875 C 334.722656 299.855469 336.785156 299.480469 338.851562 299.125 C 340.179688 298.894531 341.507812 298.664062 342.84375 298.453125 C 343.9375 298.265625 345.039062 298.113281 346.136719 297.925781 C 346.351562 297.890625 346.566406 297.859375 346.78125 297.820312 C 347.023438 297.773438 347.296875 297.800781 347.480469 297.628906 C 348.066406 297.226562 347.738281 296.265625 347.007812 296.28125 C 344.804688 296.539062 342.890625 296.871094 340.871094 297.15625 L 340.867188 297.15625 C 339.585938 297.339844 338.265625 297.503906 336.792969 297.628906 C 335.558594 297.792969 334.339844 298.011719 333.109375 298.238281 C 332.464844 298.363281 331.816406 298.484375 331.175781 298.636719 C 331.226562 298.488281 331.269531 298.34375 331.316406 298.199219 C 331.542969 297.609375 331.769531 297.066406 332.402344 296.203125 C 332.582031 295.992188 332.777344 295.789062 332.984375 295.609375 C 333.078125 295.5 333.546875 295.128906 333.695312 295.007812 C 334.921875 294.085938 336.25 293.304688 337.601562 292.5625 L 335.152344 292.039062 " fill-opacity="1" fill-rule="nonzero"/><path fill="#1c171d" d="M 289.460938 238.820312 C 289.460938 236.910156 290.457031 235.367188 291.691406 235.367188 C 292.917969 235.367188 293.925781 236.910156 293.925781 238.820312 C 293.925781 240.722656 292.917969 242.269531 291.691406 242.269531 C 290.457031 242.269531 289.460938 240.722656 289.460938 238.820312 " fill-opacity="1" fill-rule="nonzero"/><path fill="#1c171d" d="M 313.589844 236.570312 C 313.589844 234.667969 314.585938 233.117188 315.820312 233.117188 C 317.050781 233.117188 318.050781 234.667969 318.050781 236.570312 C 318.050781 238.476562 317.050781 240.023438 315.820312 240.023438 C 314.585938 240.023438 313.589844 238.476562 313.589844 236.570312 " fill-opacity="1" fill-rule="nonzero"/><path fill="#2e2c2c" d="M 372.261719 402.226562 C 372.8125 402.003906 373.355469 401.769531 373.886719 401.480469 C 374.0625 401.382812 374.25 401.300781 374.429688 401.207031 L 374.378906 401.179688 C 374.835938 400.699219 375.21875 400.117188 375.507812 399.5625 C 381.140625 388.773438 388.976562 377.851562 391.023438 365.917969 C 387.546875 364.65625 382.363281 363.828125 377.863281 361.683594 C 375.34375 360.488281 374.707031 360.53125 370.714844 357.773438 C 368.234375 369.0625 368.078125 378.578125 368.125 390.117188 C 368.140625 393.886719 368.363281 397.882812 370.539062 400.996094 C 370.847656 401.4375 371.214844 401.871094 371.707031 402.082031 C 371.890625 402.160156 372.078125 402.207031 372.261719 402.226562 " fill-opacity="1" fill-rule="nonzero"/><path fill="#944c09" d="M 264.324219 243.652344 C 263.65625 242.390625 262.738281 241.25 261.695312 240.261719 C 261.03125 239.6875 260.339844 239.136719 259.578125 238.695312 C 259.226562 238.519531 258.882812 238.261719 258.484375 238.203125 C 257.511719 238.050781 257.042969 239.367188 257.902344 239.851562 C 260.019531 240.886719 261.492188 242.410156 262.632812 244.667969 C 261.875 244.390625 261.117188 244.113281 260.359375 243.832031 C 259.902344 243.664062 259.441406 243.496094 258.980469 243.324219 L 258.691406 243.316406 C 257.921875 243.390625 257.847656 244.480469 258.589844 244.679688 C 260.089844 245.199219 261.589844 245.71875 263.089844 246.238281 L 263.285156 246.304688 C 263.632812 247.398438 263.9375 248.621094 264.207031 248.96875 C 264.605469 249.542969 265.605469 249.335938 265.773438 248.664062 C 265.976562 247.636719 265.171875 245.207031 264.324219 243.652344 " fill-opacity="1" fill-rule="nonzero"/><path fill="#000000" d="M 311.125 207.808594 C 310.753906 207.734375 310.519531 207.382812 310.601562 207.023438 C 310.804688 206.144531 311.585938 205.441406 312.34375 204.933594 C 313.433594 204.199219 314.601562 203.578125 315.820312 203.097656 C 316.742188 202.730469 317.820312 202.441406 318.742188 202.925781 C 320.027344 203.601562 320.339844 205.34375 320.472656 206.808594 C 320.691406 209.164062 321.171875 211.761719 320.746094 213.949219 C 320.558594 214.917969 319.839844 216.46875 319.558594 215.992188 C 317.621094 212.679688 311.125 207.808594 311.125 207.808594 " fill-opacity="1" fill-rule="nonzero"/><path fill="#000000" d="M 256.132812 235.5625 C 256.101562 235.675781 253.460938 236.242188 252.734375 240.296875 C 252.589844 241.097656 252.523438 241.90625 252.527344 242.710938 C 252.53125 243.539062 252.625 243.933594 252.605469 244.390625 C 251.265625 242.859375 249.390625 240.738281 250.0625 238.839844 C 250.4375 237.789062 251.398438 237.035156 252.363281 236.429688 C 253.359375 235.792969 254.972656 235.257812 256.132812 235.5625 " fill-opacity="1" fill-rule="nonzero"/><path fill="#1c171d" d="M 310.359375 258.863281 C 310.1875 258.773438 310 258.714844 309.816406 258.714844 L 309.558594 258.75 C 308.304688 258.953125 307.09375 259.386719 305.890625 259.78125 C 305.453125 259.9375 305.03125 260.105469 304.597656 260.265625 C 304.234375 260.410156 303.804688 260.503906 303.605469 260.867188 C 303.148438 261.617188 303.863281 262.5625 304.710938 262.335938 C 305.320312 262.109375 305.941406 261.9375 306.5625 261.761719 C 307.34375 261.511719 308.121094 261.257812 308.910156 261.058594 C 309.226562 260.972656 309.546875 260.90625 309.863281 260.847656 C 310.070312 260.785156 310.292969 260.753906 310.445312 260.597656 C 311.054688 260.199219 310.980469 259.203125 310.359375 258.863281 " fill-opacity="1" fill-rule="nonzero"/><path fill="#f9ab3f" d="M 464.472656 181.128906 C 463.09375 178.589844 461.210938 176.542969 458.78125 175.046875 C 454.097656 172.160156 449.117188 171.433594 443.890625 173.339844 C 442.242188 173.933594 440.949219 174.722656 439.933594 175.566406 C 436.746094 178.179688 432.339844 178.722656 428.578125 177.042969 L 428.378906 176.949219 C 421.023438 173.652344 419.632812 163.765625 425.84375 158.636719 C 427.03125 157.652344 428.34375 156.699219 429.796875 155.804688 C 436.140625 151.886719 443.074219 150.109375 450.519531 150.269531 C 453.597656 150.332031 456.617188 150.785156 459.585938 151.578125 C 462.023438 152.226562 464.371094 153.089844 466.632812 154.199219 C 474.410156 158.027344 480.386719 163.722656 484.316406 171.464844 C 487.9375 178.609375 489.117188 186.160156 487.742188 194.074219 C 487.191406 197.230469 486.191406 200.253906 484.792969 203.136719 C 482.679688 207.480469 479.78125 211.203125 475.933594 214.164062 C 472.71875 216.636719 469.125 218.328125 465.226562 219.417969 C 462.011719 220.3125 458.722656 220.652344 455.402344 220.828125 C 453.207031 220.953125 451.03125 221.261719 448.929688 221.957031 C 448.421875 222.121094 447.9375 222.351562 447.441406 222.550781 C 446.585938 222.898438 446.105469 223.613281 445.652344 224.347656 C 444.996094 225.402344 444.433594 226.328125 443.945312 227.148438 C 442.007812 230.40625 437.9375 231.707031 434.464844 230.175781 C 432.265625 229.203125 430.070312 228.234375 427.871094 227.257812 C 423.703125 225.425781 422.113281 220.324219 424.519531 216.460938 L 424.570312 216.386719 C 425.90625 214.265625 427.238281 212.144531 428.703125 210.117188 C 431.003906 206.929688 434.0625 204.597656 437.5625 202.835938 C 440.964844 201.125 444.582031 200.109375 448.320312 199.476562 C 450.804688 199.054688 453.3125 198.84375 455.832031 198.703125 C 457.699219 198.601562 459.523438 198.285156 461.230469 197.457031 C 462.707031 196.738281 463.78125 195.609375 464.566406 194.1875 C 466.289062 191.074219 466.632812 187.78125 465.746094 184.359375 C 465.457031 183.234375 465.027344 182.167969 464.472656 181.128906 " fill-opacity="1" fill-rule="nonzero"/><path fill="#f9ab3f" d="M 418.125 257.359375 L 418.101562 257.351562 C 412.535156 254.898438 410.015625 248.402344 412.46875 242.851562 C 414.929688 237.292969 421.429688 234.773438 426.992188 237.230469 L 427.019531 237.238281 C 432.582031 239.695312 435.101562 246.183594 432.648438 251.746094 C 430.1875 257.300781 423.6875 259.816406 418.125 257.359375 " fill-opacity="1" fill-rule="nonzero"/><g clip-path="url(#fd47a028ef)"><path fill="#f9ab3f" d="M 311.375 36.996094 C 309.089844 35.230469 306.542969 34.117188 303.710938 33.734375 C 298.257812 32.984375 293.414062 34.328125 289.394531 38.183594 C 288.128906 39.386719 287.269531 40.625 286.675781 41.808594 C 284.824219 45.488281 281.007812 47.769531 276.882812 47.742188 L 276.660156 47.742188 C 268.605469 47.6875 263.332031 39.207031 266.945312 32.007812 C 267.632812 30.632812 268.449219 29.234375 269.414062 27.828125 C 273.628906 21.683594 279.261719 17.257812 286.136719 14.394531 C 288.972656 13.214844 291.921875 12.414062 294.957031 11.9375 C 297.441406 11.546875 299.949219 11.390625 302.460938 11.5 C 311.128906 11.863281 318.898438 14.664062 325.617188 20.160156 C 331.824219 25.230469 335.957031 31.660156 337.898438 39.457031 C 338.671875 42.566406 338.984375 45.734375 338.871094 48.941406 C 338.691406 53.761719 337.542969 58.339844 335.222656 62.597656 C 333.277344 66.152344 330.683594 69.15625 327.550781 71.71875 C 324.96875 73.839844 322.101562 75.476562 319.136719 76.976562 C 317.175781 77.976562 315.3125 79.136719 313.671875 80.621094 C 313.277344 80.976562 312.921875 81.382812 312.550781 81.765625 C 311.910156 82.421875 311.761719 83.277344 311.644531 84.125 C 311.464844 85.359375 311.324219 86.433594 311.210938 87.378906 C 310.753906 91.140625 307.558594 93.972656 303.761719 93.96875 C 301.359375 93.96875 298.953125 93.96875 296.554688 93.96875 C 292 93.96875 288.480469 89.949219 289.121094 85.441406 L 289.132812 85.351562 C 289.5 82.875 289.863281 80.394531 290.382812 77.945312 C 291.199219 74.101562 293.050781 70.738281 295.542969 67.710938 C 297.960938 64.78125 300.859375 62.386719 304.023438 60.300781 C 306.128906 58.910156 308.335938 57.707031 310.582031 56.566406 C 312.25 55.71875 313.792969 54.6875 315.011719 53.25 C 316.078125 51.996094 316.605469 50.523438 316.746094 48.90625 C 317.0625 45.367188 316.046875 42.222656 313.851562 39.445312 C 313.132812 38.53125 312.304688 37.730469 311.375 36.996094 " fill-opacity="1" fill-rule="nonzero"/></g><path fill="#f9ab3f" d="M 299.808594 125.4375 L 299.785156 125.4375 C 293.699219 125.4375 288.773438 120.511719 288.773438 114.4375 C 288.773438 108.363281 293.699219 103.441406 299.785156 103.441406 L 299.808594 103.441406 C 305.890625 103.441406 310.824219 108.363281 310.824219 114.4375 C 310.824219 120.511719 305.890625 125.4375 299.808594 125.4375 " fill-opacity="1" fill-rule="nonzero"/><path fill="#f9ab3f" d="M 106.808594 129.730469 C 103.976562 129.175781 101.195312 129.3125 98.496094 130.230469 C 93.277344 131.992188 89.546875 135.355469 87.671875 140.59375 C 87.085938 142.242188 86.863281 143.734375 86.863281 145.058594 C 86.851562 149.175781 84.457031 152.914062 80.757812 154.730469 L 80.5625 154.828125 C 73.320312 158.375 64.816406 153.136719 64.828125 145.085938 C 64.828125 143.550781 64.929688 141.933594 65.167969 140.246094 C 66.191406 132.863281 69.246094 126.394531 74.117188 120.769531 C 76.132812 118.449219 78.414062 116.414062 80.914062 114.636719 C 82.96875 113.175781 85.136719 111.917969 87.4375 110.890625 C 95.34375 107.355469 103.554688 106.394531 112.023438 108.3125 C 119.84375 110.078125 126.414062 113.992188 131.640625 120.097656 C 133.722656 122.539062 135.417969 125.234375 136.746094 128.152344 C 138.742188 132.546875 139.765625 137.148438 139.597656 142 C 139.449219 146.046875 138.464844 149.894531 136.816406 153.585938 C 135.453125 156.625 133.613281 159.375 131.632812 162.042969 C 130.324219 163.808594 129.175781 165.675781 128.375 167.730469 C 128.179688 168.230469 128.046875 168.757812 127.886719 169.265625 C 127.605469 170.132812 127.855469 170.960938 128.125 171.785156 C 128.519531 172.960938 128.875 173.988281 129.191406 174.878906 C 130.46875 178.449219 128.878906 182.414062 125.476562 184.101562 C 123.332031 185.171875 121.179688 186.242188 119.03125 187.316406 C 114.953125 189.351562 110.007812 187.320312 108.566406 183.003906 L 108.53125 182.914062 C 107.753906 180.535156 106.964844 178.152344 106.339844 175.734375 C 105.351562 171.929688 105.5 168.09375 106.378906 164.28125 C 107.234375 160.570312 108.757812 157.140625 110.652344 153.863281 C 111.914062 151.679688 113.351562 149.617188 114.851562 147.589844 C 115.960938 146.089844 116.882812 144.484375 117.335938 142.644531 C 117.71875 141.054688 117.539062 139.5 116.945312 137.992188 C 115.636719 134.683594 113.328125 132.324219 110.117188 130.816406 C 109.070312 130.320312 107.964844 129.976562 106.808594 129.730469 " fill-opacity="1" fill-rule="nonzero"/><path fill="#f9ab3f" d="M 136.015625 214.015625 L 135.992188 214.03125 C 130.550781 216.742188 123.9375 214.535156 121.214844 209.105469 C 118.503906 203.671875 120.710938 197.0625 126.152344 194.351562 L 126.179688 194.335938 C 131.617188 191.625 138.230469 193.832031 140.949219 199.265625 C 143.667969 204.703125 141.457031 211.304688 136.015625 214.015625 " fill-opacity="1" fill-rule="nonzero"/><path fill="#000000" d="M 99.652344 534.757812 L 112.347656 581.136719 L 112.507812 581.136719 L 126.238281 534.757812 L 133.664062 534.757812 L 147.316406 581.136719 L 147.472656 581.136719 L 160.410156 534.757812 L 167.347656 534.757812 L 150.933594 590.613281 L 143.761719 590.613281 L 129.949219 543.265625 L 129.792969 543.265625 L 115.902344 590.613281 L 108.652344 590.613281 L 92.316406 534.757812 Z M 99.652344 534.757812 " fill-opacity="1" fill-rule="nonzero"/><path fill="#000000" d="M 179.8125 530.964844 L 179.8125 558.820312 L 179.96875 558.820312 C 181.070312 556.980469 182.699219 555.511719 184.859375 554.40625 C 187.019531 553.296875 189.355469 552.742188 191.875 552.742188 C 196.507812 552.742188 199.992188 554.085938 202.335938 556.773438 C 204.671875 559.449219 205.84375 563.023438 205.84375 567.484375 L 205.84375 590.613281 L 199.683594 590.613281 L 199.683594 568.199219 C 199.683594 565.367188 199.023438 563.042969 197.714844 561.230469 C 196.402344 559.414062 194.242188 558.480469 191.238281 558.421875 C 187.449219 558.421875 184.597656 559.671875 182.683594 562.167969 C 180.769531 564.667969 179.8125 568.050781 179.8125 572.3125 L 179.8125 590.613281 L 173.652344 590.613281 L 173.652344 530.964844 Z M 179.8125 530.964844 " fill-opacity="1" fill-rule="nonzero"/><path fill="#000000" d="M 235.101562 552.742188 C 240.835938 552.742188 245.519531 554.519531 249.148438 558.074219 C 252.777344 561.621094 254.671875 566.3125 254.832031 572.152344 C 254.832031 577.785156 252.992188 582.402344 249.308594 586.007812 C 245.625 589.609375 240.886719 591.457031 235.101562 591.566406 C 229.324219 591.566406 224.617188 589.738281 220.992188 586.089844 C 217.359375 582.429688 215.492188 577.785156 215.390625 572.152344 C 215.390625 566.46875 217.230469 561.832031 220.914062 558.234375 C 224.59375 554.625 229.324219 552.796875 235.101562 552.742188 Z M 222.007812 572.152344 C 222.007812 576.207031 223.230469 579.480469 225.675781 581.976562 C 228.125 584.476562 231.269531 585.777344 235.101562 585.882812 C 238.945312 585.882812 242.074219 584.609375 244.5 582.058594 C 246.917969 579.507812 248.15625 576.207031 248.214844 572.152344 C 248.214844 568.152344 246.984375 564.867188 244.53125 562.296875 C 242.085938 559.714844 238.914062 558.421875 235.023438 558.421875 C 231.246094 558.421875 228.140625 559.699219 225.722656 562.25 C 223.296875 564.800781 222.058594 568.101562 222.007812 572.152344 Z M 222.007812 572.152344 " fill-opacity="1" fill-rule="nonzero"/><path fill="#000000" d="M 300.511719 552.742188 C 305.878906 552.742188 309.78125 554.007812 312.226562 556.535156 C 314.671875 559.054688 315.917969 562.863281 315.972656 567.960938 L 315.972656 584.53125 C 315.972656 586.113281 316.15625 588.136719 316.527344 590.613281 L 310.609375 590.613281 C 310.34375 590.136719 310.210938 588.292969 310.210938 585.089844 L 310.050781 585.089844 C 307.265625 589.300781 303.21875 591.457031 297.910156 591.566406 C 293.855469 591.566406 290.554688 590.554688 288.007812 588.53125 C 285.453125 586.5 284.179688 583.859375 284.179688 580.597656 C 284.179688 576.121094 286.023438 572.847656 289.703125 570.773438 C 293.386719 568.6875 299.140625 567.644531 306.972656 567.644531 L 309.816406 567.644531 L 309.816406 566.628906 C 309.816406 561.265625 306.765625 558.53125 300.671875 558.421875 C 296.246094 558.421875 292.59375 559.765625 289.703125 562.4375 L 285.832031 558.421875 C 289.617188 554.742188 294.511719 552.847656 300.511719 552.742188 Z M 290.800781 579.960938 C 290.800781 584.121094 293.503906 586.253906 298.925781 586.359375 C 302.132812 586.359375 304.742188 585.335938 306.765625 583.277344 C 308.796875 581.226562 309.816406 578.226562 309.816406 574.28125 L 309.816406 572.867188 L 303.035156 572.867188 C 299.40625 572.867188 296.46875 573.445312 294.226562 574.597656 C 291.992188 575.75 290.851562 577.542969 290.800781 579.960938 Z M 290.800781 579.960938 " fill-opacity="1" fill-rule="nonzero"/><path fill="#000000" d="M 345.472656 552.742188 C 351.097656 552.742188 354.96875 555.082031 357.074219 559.757812 C 358.542969 557.34375 360.203125 555.574219 362.042969 554.4375 C 363.882812 553.308594 366.144531 552.742188 368.835938 552.742188 C 373.617188 552.742188 377.136719 553.992188 379.390625 556.488281 C 381.652344 558.988281 382.789062 562.757812 382.789062 567.804688 L 382.789062 590.613281 L 376.644531 590.613281 L 376.644531 568.28125 C 376.644531 561.816406 373.644531 558.53125 367.644531 558.421875 C 364.859375 558.421875 362.574219 559.464844 360.789062 561.550781 C 359 563.625 358.105469 566.132812 358.105469 569.074219 L 358.105469 590.613281 L 351.949219 590.613281 L 351.949219 569.230469 C 351.949219 565.605469 351.417969 562.894531 350.363281 561.105469 C 349.3125 559.320312 347.445312 558.421875 344.757812 558.421875 C 341.019531 558.421875 338.195312 559.671875 336.28125 562.167969 C 334.367188 564.667969 333.410156 568.128906 333.410156 572.550781 L 333.410156 590.613281 L 327.25 590.613281 L 327.25 561.898438 C 327.195312 560.058594 327.09375 557.324219 326.933594 553.691406 L 332.773438 553.691406 C 332.878906 557.324219 332.933594 559.34375 332.933594 559.757812 L 333.09375 559.757812 C 334.085938 557.660156 335.6875 555.972656 337.902344 554.675781 C 340.113281 553.386719 342.636719 552.742188 345.472656 552.742188 Z M 345.472656 552.742188 " fill-opacity="1" fill-rule="nonzero"/><path fill="#000000" d="M 417.492188 534.757812 L 424.125 534.757812 L 424.125 590.613281 L 417.492188 590.613281 Z M 417.492188 534.757812 " fill-opacity="1" fill-rule="nonzero"/><path fill="#000000" d="M 450.003906 533.328125 C 454.625 533.328125 458.328125 534.621094 461.113281 537.203125 C 463.90625 539.773438 465.328125 543.164062 465.382812 547.375 C 465.382812 550.003906 464.789062 552.355469 463.605469 554.4375 C 462.429688 556.515625 460.496094 558.789062 457.8125 561.265625 C 455.863281 563.054688 454.511719 564.542969 453.75 565.722656 C 452.984375 566.898438 452.605469 568.359375 452.605469 570.105469 L 452.605469 574.992188 L 445.988281 574.992188 L 445.988281 569.628906 C 445.988281 567.417969 446.3125 565.640625 446.96875 564.296875 C 447.625 562.953125 449.796875 560.464844 453.476562 556.835938 C 454.734375 555.578125 455.851562 554.230469 456.828125 552.789062 C 457.800781 551.339844 458.289062 549.613281 458.289062 547.613281 C 458.289062 545.035156 457.527344 542.957031 456.003906 541.375 C 454.476562 539.800781 452.449219 539.011719 449.921875 539.011719 C 447.339844 539.011719 445.191406 539.800781 443.480469 541.375 C 441.773438 542.957031 440.71875 545.035156 440.304688 547.613281 L 433.195312 546.820312 C 433.929688 542.558594 435.828125 539.246094 438.875 536.882812 C 441.921875 534.515625 445.628906 533.328125 450.003906 533.328125 Z M 449.289062 581.613281 C 450.558594 581.613281 451.660156 582.074219 452.605469 582.992188 C 453.558594 583.914062 454.035156 585.035156 454.035156 586.359375 C 454.035156 587.621094 453.546875 588.722656 452.574219 589.675781 C 451.597656 590.617188 450.503906 591.089844 449.289062 591.089844 C 448.027344 591.089844 446.921875 590.617188 445.972656 589.675781 C 445.027344 588.722656 444.558594 587.621094 444.558594 586.359375 C 444.558594 585.089844 445.027344 583.984375 445.972656 583.039062 C 446.921875 582.089844 448.027344 581.613281 449.289062 581.613281 Z M 449.289062 581.613281 " fill-opacity="1" fill-rule="nonzero"/></svg>